<?xml version="1.0" encoding="UTF-8"?>
<svg width="22px" height="22px" viewBox="0 0 22 22" version="1.1" xmlns="http://www.w3.org/2000/svg" xmlns:xlink="http://www.w3.org/1999/xlink">
    <title>560B01F2-0893-43E0-91F2-F28F6C166091</title>
    <g id="Symbols" stroke="none" stroke-width="1" fill="none" fill-rule="evenodd">
        <g id="Web/*_Assets/Icons/ic_arrow_close_macro/Light-Mode" fill="#DDDDDD">
            <path d="M13.4297913,17.5 C13.6821632,17.5 13.9013283,17.4134295 14.0740038,17.2336293 L19.1679317,12.2391787 C19.4003795,12.0194229 19.5,11.7796892 19.5,11.5 C19.5,11.2136515 19.4003795,10.9805771 19.1679317,10.7608213 L14.0740038,5.7663707 C13.9013283,5.58657048 13.6888046,5.5 13.4297913,5.5 C12.9184061,5.5 12.5,5.91287458 12.5,6.42563818 C12.5,6.67869034 12.6062619,6.91176471 12.7922201,7.0982242 L17.3083491,11.4933407 L12.7922201,15.9017758 C12.6062619,16.081576 12.5,16.3146504 12.5,16.5743618 C12.5,17.0871254 12.9184061,17.5 13.4297913,17.5 Z" id="􀆊" transform="translate(16.000000, 11.500000) rotate(90.000000) translate(-16.000000, -11.500000) "></path>
        </g>
    </g>
</svg>