<?xml version="1.0" encoding="UTF-8"?>
<svg width="8px" height="8px" viewBox="0 0 8 8" version="1.1" xmlns="http://www.w3.org/2000/svg" xmlns:xlink="http://www.w3.org/1999/xlink">
    <title>DF59939F-BDC0-4A0B-B47E-0C9288817E43</title>
    <g id="Symbols" stroke="none" stroke-width="1" fill="none" fill-rule="evenodd">
        <g id="Web/*_Assets/Icons/ic_header_arrow_close/Light-Mode" fill="#6F6F6F">
            <path d="M2.16413662,8 C2.34440228,8 2.50094877,7.94228635 2.62428843,7.82241953 L6.26280835,4.49278579 C6.4288425,4.34628191 6.5,4.18645949 6.5,4 C6.5,3.809101 6.4288425,3.65371809 6.26280835,3.50721421 L2.62428843,0.177580466 C2.50094877,0.0577136515 2.34914611,0 2.16413662,0 C1.79886148,0 1.5,0.275249723 1.5,0.61709212 C1.5,0.785793563 1.57590133,0.941176471 1.70872865,1.0654828 L4.9345351,3.99556049 L1.70872865,6.9345172 C1.57590133,7.05438402 1.5,7.20976693 1.5,7.38290788 C1.5,7.72475028 1.79886148,8 2.16413662,8 Z" id="􀆊" transform="translate(4.000000, 4.000000) rotate(90.000000) translate(-4.000000, -4.000000) "></path>
        </g>
    </g>
</svg>