<?xml version="1.0" encoding="UTF-8"?>
<svg width="22px" height="22px" viewBox="0 0 22 22" version="1.1" xmlns="http://www.w3.org/2000/svg" xmlns:xlink="http://www.w3.org/1999/xlink">
    <g id="Symbols-(Common)" stroke="none" stroke-width="1" fill="none" fill-rule="evenodd">
        <g id="_Assets/Icons/ic_data/Dark-Mode" fill="currentColor">
            <path d="M7.30469246,3.20837652 C7.3443728,3.23824392 7.37966332,3.27353444 7.40953072,3.31321478 L10.8622337,7.9003039 C11.0384642,8.13443501 10.9915266,8.46709887 10.7573954,8.64332941 C10.6654189,8.71256019 10.5534217,8.75 10.4383018,8.75 L7.989,8.75 L7.98919913,17.9963997 C7.98919913,18.5506728 7.53987197,19 6.98559883,19 C6.4313257,19 5.98199854,18.5506728 5.98199854,17.9963997 L5.981,8.75 L3.53289586,8.75 C3.2398522,8.75 3.00229338,8.51244118 3.00229338,8.21939752 C3.00229338,8.10427763 3.03973319,7.99228046 3.10896397,7.9003039 L6.56166694,3.31321478 C6.73789749,3.07908366 7.07056134,3.03214598 7.30469246,3.20837652 Z M15.0144012,3 C15.5686743,3 16.0180015,3.44932716 16.0180015,4.00360029 L16.018,13.25 L18.4671041,13.25 C18.7601478,13.25 18.9977066,13.4875588 18.9977066,13.7806025 C18.9977066,13.8957224 18.9602668,14.0077195 18.891036,14.0996961 L15.4383331,18.6867852 C15.2621025,18.9209163 14.9294387,18.967854 14.6953075,18.7916235 C14.6556272,18.7617561 14.6203367,18.7264656 14.5904693,18.6867852 L11.1377663,14.0996961 C10.9615358,13.865565 11.0084734,13.5329011 11.2426046,13.3566706 C11.3345811,13.2874398 11.4465783,13.25 11.5616982,13.25 L14.01,13.25 L14.0108009,4.00360029 C14.0108009,3.44932716 14.460128,3 15.0144012,3 Z" id="Data"></path>
        </g>
    </g>
</svg>