<?xml version="1.0" encoding="UTF-8"?>
<svg width="22px" height="22px" viewBox="0 0 22 22" version="1.1" xmlns="http://www.w3.org/2000/svg" xmlns:xlink="http://www.w3.org/1999/xlink">
    <title>3C13C621-950B-4AC5-8ACD-3E028E0DD051</title>
    <defs>
        <radialGradient cx="1.81949774%" cy="90.8445653%" fx="1.81949774%" fy="90.8445653%" r="144.576102%" id="radialGradient-1">
            <stop stop-color="#FED576" offset="0%"></stop>
            <stop stop-color="#F47133" offset="26.34%"></stop>
            <stop stop-color="#BC3081" offset="60.91%"></stop>
            <stop stop-color="#4C63D2" offset="100%"></stop>
        </radialGradient>
    </defs>
    <g id="Symbols" stroke="none" stroke-width="1" fill="none" fill-rule="evenodd">
        <g id="Web/*_Assets/Icons/ic_instagram/Light-Mode" fill="url(#radialGradient-1)" fill-rule="nonzero">
            <path d="M11.9426378,3.00090353 C12.8137082,3.00295905 13.2487297,3.00883197 13.6415298,3.02162392 L13.8212582,3.02803048 C13.9709237,3.03379752 14.1233062,3.04065867 14.300813,3.0487904 C15.1528455,3.08782273 15.7349593,3.22118317 16.2422764,3.41959748 C16.7691057,3.62451718 17.2146341,3.89774344 17.6601626,4.34336247 C18.102439,4.78572881 18.3756098,5.23460053 18.5804878,5.7582842 C18.7756098,6.26570441 18.9121951,6.84793657 18.9512195,7.70014231 C18.9853658,8.44582232 18.9971037,8.74822118 18.9995046,10.2677755 L18.9995046,11.7289718 C18.9971037,13.2485261 18.9853658,13.550925 18.9512195,14.296605 C18.9121951,15.1488107 18.7788618,15.7310429 18.5804878,16.2384631 C18.3756098,16.7653995 18.102439,17.2110185 17.6569106,17.6566375 C17.2113821,18.1022566 16.7658537,18.3754828 16.2390244,18.5804025 C15.7317073,18.7755641 15.1495935,18.9121773 14.297561,18.9512096 C13.5520326,18.9853629 13.2496951,18.9971031 11.7304497,18.9995045 L10.2695503,18.9995045 C8.75030488,18.9971031 8.44796747,18.9853629 7.70243902,18.9512096 C6.8504065,18.9121773 6.26829268,18.7788168 5.76097561,18.5804025 C5.23414634,18.3754828 4.78861789,18.1022566 4.34308943,17.6566375 C3.89756098,17.2110185 3.62439024,16.7653995 3.41951219,16.2384631 C3.22439024,15.7310429 3.08780488,15.1488107 3.04878049,14.296605 C3.03902439,14.0835536 3.03109756,13.9066884 3.02469512,13.727282 L3.01878952,13.5455942 C3.00794941,13.1747871 3.00280036,12.7421789 3.00090334,11.9379504 L3.00090334,10.058797 C3.00295845,9.18754941 3.00883017,8.75243952 3.02161952,8.35955959 L3.02802479,8.17979462 C3.03379065,8.03009871 3.04065041,7.87768517 3.04878049,7.70014231 C3.08780488,6.84793657 3.22113821,6.26570441 3.41951219,5.7582842 C3.62439024,5.23460053 3.89756098,4.78572881 4.34308943,4.34336247 C4.78861789,3.89774344 5.23414634,3.62451718 5.76097561,3.41959748 C6.26829268,3.22118317 6.8504065,3.08457003 7.70569106,3.0487904 C8.41571816,3.01626347 8.72375791,3.00406587 10.0638663,3.00090353 Z M11.496349,4.44109387 L10.503651,4.44109387 C10.4269874,4.44114657 10.3532351,4.44121434 10.2822154,4.44129904 L9.8874586,4.44202563 C9.15780638,4.44394562 8.77015959,4.44884725 8.41557513,4.45998321 L8.2396078,4.46608577 C8.09288053,4.47162928 7.94295393,4.47834926 7.76747967,4.48648099 C6.98699187,4.52226062 6.56422764,4.65236837 6.28130081,4.76295995 C5.90731707,4.90933116 5.64065041,5.08172393 5.36097561,5.36145558 C5.08130081,5.64118723 4.90894309,5.90790811 4.76260163,6.28196788 C4.65203252,6.56495223 4.52195122,6.9878024 4.48617886,7.76844887 C4.47872628,7.9439588 4.47240289,8.09391588 4.46706164,8.24067297 L4.46111417,8.41667608 C4.44829282,8.83044205 4.44271045,9.28921868 4.44113948,10.2836959 L4.4410061,11.7195568 C4.44219174,12.714034 4.44669716,13.1728107 4.45968646,13.5865766 L4.46578779,13.7625797 C4.47133017,13.9093368 4.47804878,14.0592939 4.48617886,14.2348038 C4.52195122,15.0154503 4.65203252,15.4383005 4.76260163,15.7212848 C4.90894309,16.0953446 5.08130081,16.3620655 5.36097561,16.6417971 C5.64065041,16.9215288 5.90731707,17.0939215 6.28130081,17.2402927 C6.56422764,17.3508843 6.98699187,17.4809921 7.76747967,17.5167717 C7.94295393,17.5242258 8.09288053,17.5305505 8.2396078,17.5358928 L8.41557513,17.5418415 C8.79970829,17.5537494 9.22264378,17.5594143 10.0771755,17.5614209 L10.503651,17.5620967 C10.6569783,17.5622416 10.8219512,17.5623094 11,17.5623094 L11.2574451,17.5622736 C11.3401103,17.5622492 11.4196853,17.5622115 11.496349,17.5621588 L12.1125414,17.561227 C13.2678241,17.5581871 13.5657181,17.5476723 14.2325203,17.5167717 C15.0130081,17.4809921 15.4357724,17.3508843 15.7186992,17.2402927 C16.0926829,17.0939215 16.3593496,16.9215288 16.6390244,16.6417971 C16.9186992,16.3620655 17.0910569,16.0953446 17.2373984,15.7212848 C17.3479675,15.4383005 17.4780488,15.0154503 17.5138211,14.2348038 C17.5197832,14.0943959 17.5250226,13.9703418 17.5296146,13.8511968 L17.5388858,13.5865766 C17.5507914,13.2023654 17.5564551,12.7793439 17.5584613,11.9246384 L17.5591369,11.4980763 C17.5592818,11.3447178 17.5593496,11.1797113 17.5593496,11.0016263 L17.5593138,10.744129 C17.5592894,10.6614469 17.5592517,10.5818557 17.559199,10.5051765 L17.5582675,9.88885877 C17.5552281,8.73334124 17.5447154,8.43538659 17.5138211,7.76844887 C17.4780488,6.9878024 17.3479675,6.56495223 17.2373984,6.28196788 C17.0910569,5.90790811 16.9186992,5.64118723 16.6390244,5.36145558 C16.3593496,5.08172393 16.0926829,4.90933116 15.7186992,4.76295995 C15.4357724,4.65236837 15.0130081,4.52226062 14.2325203,4.48648099 C14.057046,4.47834926 13.9071195,4.47162928 13.7603922,4.46608577 L13.5844249,4.45998321 C13.2298404,4.44884725 12.8421936,4.44394562 12.1125414,4.44202563 L11.7177846,4.44129904 C11.6467649,4.44121434 11.5730127,4.44114657 11.496349,4.44109387 Z M11,6.89347428 C13.2699187,6.89347428 15.1073171,8.73449888 15.1073171,11.0016264 C15.1073171,13.2687538 13.2666667,15.1097784 11,15.1097784 C8.73333333,15.1097784 6.89268293,13.2720065 6.89268293,11.0016264 C6.89268293,8.73124619 8.7300813,6.89347428 11,6.89347428 Z M11,8.33441756 C9.52682927,8.33441756 8.33333333,9.52815613 8.33333333,11.0016264 C8.33333333,12.4750966 9.52682927,13.6688351 11,13.6688351 C12.4731707,13.6688351 13.6666667,12.4750966 13.6666667,11.0016264 C13.6666667,9.52815613 12.4731707,8.33441756 11,8.33441756 Z M15.2731707,5.7308396 C15.8254554,5.7308396 16.2731707,6.17855485 16.2731707,6.7308396 C16.2731707,7.28312435 15.8254554,7.7308396 15.2731707,7.7308396 C14.720886,7.7308396 14.2731707,7.28312435 14.2731707,6.7308396 C14.2731707,6.17855485 14.720886,5.7308396 15.2731707,5.7308396 Z" id="Instagram"></path>
        </g>
    </g>
</svg>