<?xml version="1.0" encoding="UTF-8"?>
<svg width="22px" height="22px" viewBox="0 0 22 22" version="1.1" xmlns="http://www.w3.org/2000/svg" xmlns:xlink="http://www.w3.org/1999/xlink">
    <title>BE35C40F-1063-4D33-9AFD-00AC34FEA585</title>
    <g id="Symbols" stroke="none" stroke-width="1" fill="none" fill-rule="evenodd">
        <g id="Web/*_Assets/Icons/ic_language_header/Light-Mode" fill="#ffffff" fill-rule="nonzero">
            <path d="M11.0953763,5.29432544 C10.8878026,5.39861296 11.1991632,5.50290048 11.406737,5.607188 C11.9256713,5.92005056 11.6143107,4.98146288 11.0953763,5.29432544 L11.0953763,5.29432544 Z M10.8878026,4.46002528 C11.1991632,4.5643128 12.3408188,5.39861296 11.406737,5.0857504 C11.406737,4.98146288 10.0575076,4.46002528 10.4726551,4.35573776 C10.5764419,4.35573776 10.7840157,4.35573776 10.8878026,4.46002528 L10.8878026,4.46002528 Z M9.01963881,4.5643128 C9.01963881,4.5643128 9.01963881,4.46002528 8.91585193,4.35573776 C8.70827818,4.35573776 8.91585193,4.25145024 9.22721256,4.25145024 C9.53857319,4.35573776 9.64236006,4.25145024 9.53857319,4.66860032 C9.53857319,4.87717536 8.91585193,4.77288784 8.91585193,4.77288784 C8.91585193,4.66860032 9.01963881,4.66860032 9.01963881,4.5643128 L9.01963881,4.5643128 Z M9.64236006,4.0428752 C9.84993382,4.0428752 9.22721256,3.83430016 9.33099944,4.0428752 C9.43478631,4.14716272 9.53857319,4.14716272 9.64236006,4.0428752 L9.64236006,4.0428752 Z M9.95372069,4.35573776 C9.95372069,4.14716272 9.74614694,4.35573776 9.95372069,4.35573776 L9.95372069,4.35573776 Z M10.2650813,3.93858768 C10.4726551,4.14716272 10.3688682,4.25145024 10.2650813,4.0428752 C10.1612944,3.93858768 10.1612944,3.83430016 10.2650813,3.93858768 L10.2650813,3.93858768 Z M13.067327,7.6929384 C13.4824745,7.79722592 12.7559663,7.1715008 12.7559663,7.1715008 C12.7559663,7.1715008 12.6521795,7.48436336 12.6521795,7.58865088 C12.7559663,7.6929384 12.8597532,7.58865088 13.067327,7.6929384 L13.067327,7.6929384 Z M10.8878026,11.3430016 C10.9915895,11.3430016 11.5105238,11.3430016 11.0953763,11.1344266 C10.8878026,11.1344266 10.3688682,10.821564 10.1612944,10.9258515 C10.2650813,11.030139 10.5764419,10.9258515 10.8878026,11.2387141 L10.8878026,11.3430016 Z M11.6143107,11.4472891 C11.6143107,11.4472891 12.1332451,11.4472891 11.8218845,11.3430016 C11.5105238,11.2387141 11.1991632,11.5515766 11.6143107,11.4472891 L11.6143107,11.4472891 Z M16.1809333,6.75435072 C16.1809333,6.54577568 15.7657857,6.1286256 15.7657857,6.02433808 C15.7657857,5.92005056 16.4922939,6.54577568 16.388507,6.85863824 C16.388507,7.06721328 16.1809333,6.75435072 16.1809333,6.75435072 L16.1809333,6.75435072 Z M15.8695726,6.6500632 C15.8695726,6.85863824 16.1809333,6.75435072 15.9733595,6.54577568 C15.8695726,6.44148816 15.8695726,6.54577568 15.8695726,6.6500632 L15.8695726,6.6500632 Z M14.6241301,5.29432544 C14.4165564,5.39861296 13.897622,4.98146288 14.2089826,5.0857504 C14.4165564,5.0857504 14.727917,5.0857504 14.6241301,5.29432544 L14.6241301,5.29432544 Z M12.3408188,11.5515766 C12.4446057,11.4472891 12.1332451,11.2387141 12.237032,11.4472891 C12.237032,11.5515766 12.237032,11.5515766 12.3408188,11.5515766 L12.3408188,11.5515766 Z M16.8036545,8.31866352 C17.0112283,8.63152608 17.218802,8.7358136 17.218802,8.31866352 L17.218802,7.6929384 C17.3225889,7.48436336 17.4263758,7.6929384 17.5301626,7.90151344 C18.1528839,8.63152608 17.7377364,7.90151344 17.5301626,7.6929384 C17.3225889,7.48436336 17.5301626,7.48436336 17.5301626,7.48436336 C17.218802,6.96292576 16.4922939,5.607188 16.5960808,7.1715008 C16.5960808,7.48436336 16.9074414,7.38007584 16.6998676,7.79722592 C16.5960808,8.00580096 16.6998676,8.11008848 16.8036545,8.31866352 L16.8036545,8.31866352 Z M17.1150151,11.9687267 C17.3225889,12.3858768 17.3225889,12.4901643 17.6339495,12.2815893 C17.8415233,12.1773018 17.8415233,11.8644392 18.1528839,12.1773018 C18.3604577,12.2815893 18.1528839,12.4901643 18.1528839,12.6987394 C18.1528839,13.3244645 18.3604577,11.7601517 18.3604577,11.7601517 C18.4642445,10.9258515 18.3604577,9.88297632 18.1528839,9.04867616 C18.049097,8.7358136 17.9453101,8.94438864 17.8415233,8.63152608 C17.7377364,8.42295104 17.6339495,8.42295104 17.4263758,8.52723856 C17.3225889,8.7358136 17.5301626,8.7358136 17.218802,8.7358136 C17.0112283,8.7358136 17.0112283,9.57011376 17.0112283,9.7786888 C16.8036545,10.4044139 16.8036545,10.1958389 16.9074414,10.821564 C16.9074414,11.6558642 16.6998676,11.2387141 17.1150151,11.9687267 L17.1150151,11.9687267 Z M10.5764419,3.93858768 C10.7840157,4.14716272 10.9915895,3.83430016 11.0953763,3.62572512 C11.1991632,3.41715008 10.8878026,3.5214376 10.7840157,3.62572512 C10.4726551,3.73001264 10.3688682,3.5214376 10.5764419,3.83430016 L10.5764419,3.93858768 Z M12.9635401,5.607188 C13.1711138,5.81576304 13.4824745,6.02433808 13.3786876,5.607188 C13.2749007,4.98146288 13.3786876,5.29432544 13.4824745,5.0857504 C13.5862614,4.87717536 13.897622,4.77288784 13.5862614,4.66860032 C13.2749007,4.35573776 13.2749007,4.14716272 12.7559663,3.83430016 C12.4446057,3.62572512 11.5105238,3.41715008 11.1991632,3.73001264 C11.0953763,3.93858768 11.6143107,4.14716272 11.8218845,4.25145024 C12.5483926,4.77288784 12.4446057,5.0857504 12.9635401,5.607188 L12.9635401,5.607188 Z M16.0771464,5.81576304 C16.2847201,6.02433808 16.0771464,5.81576304 16.388507,6.02433808 C16.5960808,6.23291312 16.2847201,5.81576304 16.2847201,5.81576304 C16.2847201,5.81576304 15.3506382,4.87717536 15.6619989,5.39861296 C15.7657857,5.607188 15.8695726,5.71147552 16.0771464,5.81576304 L16.0771464,5.81576304 Z M11.8218845,12.3858768 C11.6143107,12.2815893 11.5105238,12.4901643 11.5105238,12.2815893 C11.5105238,12.0730142 10.9915895,12.5944518 10.9915895,12.5944518 L10.6802288,12.5944518 L10.5764419,12.5944518 C10.3688682,12.5944518 10.2650813,12.5944518 10.1612944,12.3858768 C10.0575076,12.0730142 10.4726551,11.8644392 9.84993382,11.7601517 C9.53857319,11.7601517 9.64236006,11.5515766 9.74614694,11.3430016 C9.84993382,11.1344266 9.84993382,11.030139 9.64236006,11.030139 C9.43478631,11.1344266 9.33099944,11.6558642 9.01963881,11.4472891 C8.39691755,11.1344266 8.6044913,9.67440128 9.43478631,10.0915514 C9.74614694,10.1958389 9.33099944,9.7786888 10.1612944,9.98726384 C10.4726551,10.0915514 10.2650813,10.5087014 10.5764419,10.5087014 C10.7840157,10.612989 10.4726551,9.98726384 10.4726551,9.88297632 C10.5764419,9.57011376 11.1991632,9.46582624 10.9915895,9.04867616 L10.9915895,8.84010112 C11.0953763,8.7358136 10.9915895,9.15296368 11.1991632,8.7358136 C11.406737,8.42295104 11.5105238,8.63152608 11.6143107,8.31866352 C11.6143107,8.11008848 12.1332451,7.79722592 12.1332451,8.00580096 C12.0294582,8.214376 12.4446057,7.90151344 12.4446057,7.90151344 C12.3408188,7.79722592 12.1332451,7.79722592 12.1332451,7.58865088 C11.9256713,7.27578832 11.6143107,7.79722592 11.6143107,7.6929384 C11.5105238,7.48436336 12.0294582,7.38007584 12.1332451,7.27578832 C13.1711138,7.06721328 12.6521795,6.85863824 12.1332451,6.33720064 C11.6143107,5.71147552 11.8218845,6.44148816 11.5105238,6.02433808 C11.0953763,5.50290048 10.7840157,5.71147552 10.8878026,6.33720064 C10.9915895,6.44148816 10.9915895,6.54577568 10.7840157,6.6500632 L10.7840157,6.85863824 C10.7840157,7.27578832 10.5764419,7.38007584 10.5764419,6.85863824 C10.5764419,6.54577568 10.3688682,6.75435072 10.0575076,6.54577568 C9.64236006,6.33720064 9.33099944,6.23291312 9.84993382,5.71147552 C10.2650813,5.29432544 10.5764419,5.71147552 10.5764419,5.19003792 C10.5764419,4.87717536 10.6802288,4.87717536 10.4726551,4.98146288 C10.1612944,4.98146288 10.1612944,4.46002528 9.95372069,4.77288784 C9.64236006,4.98146288 9.53857319,4.98146288 9.22721256,4.98146288 C8.70827818,5.0857504 8.81206506,4.66860032 8.1893438,4.66860032 C7.67040942,4.77288784 7.7741963,4.5643128 7.46283567,4.5643128 C6.94390129,4.5643128 6.94390129,4.98146288 6.63254066,4.98146288 C6.32118003,5.0857504 6.52875378,5.0857504 6.32118003,5.29432544 C6.11360628,5.39861296 5.80224565,5.607188 5.90603253,5.92005056 C6.0098194,6.02433808 4.97195064,6.33720064 5.49088502,6.23291312 C6.11360628,6.1286256 6.11360628,5.81576304 6.42496691,5.71147552 C6.84011441,5.607188 6.84011441,6.23291312 6.84011441,6.54577568 C6.84011441,6.6500632 6.84011441,6.75435072 6.94390129,6.96292576 C7.04768816,7.58865088 6.94390129,7.1715008 6.84011441,7.1715008 C6.84011441,7.1715008 6.84011441,7.48436336 6.73632754,7.6929384 C6.63254066,8.00580096 6.42496691,8.42295104 6.63254066,8.7358136 C6.73632754,8.84010112 6.73632754,9.04867616 6.84011441,9.2572512 C6.94390129,9.57011376 6.94390129,9.67440128 7.04768816,10.0915514 C7.04768816,10.3001264 7.15147504,10.3001264 7.25526192,10.5087014 C7.25526192,10.612989 7.46283567,10.9258515 7.35904879,10.5087014 C7.15147504,9.7786888 7.04768816,9.36153872 7.46283567,10.3001264 C7.67040942,10.612989 7.7741963,10.7172765 7.87798317,11.030139 C7.98177005,11.3430016 8.39691755,11.6558642 8.81206506,11.6558642 C9.12342568,11.7601517 9.12342568,11.8644392 9.53857319,11.9687267 C10.0575076,12.1773018 9.74614694,12.3858768 10.0575076,12.5944518 C10.3688682,12.8030269 10.2650813,12.8030269 10.5764419,12.6987394 C11.0953763,12.8030269 10.8878026,13.220177 10.6802288,13.5330395 C10.3688682,13.9501896 10.6802288,13.8459021 10.5764419,13.9501896 C10.4726551,14.2630522 10.6802288,14.5759147 10.8878026,14.7844898 C11.5105238,15.7230774 11.8218845,15.5145024 11.5105238,16.8702402 C11.406737,17.1831027 10.9915895,18.0174029 11.3029501,18.2259779 C11.3029501,18.2259779 11.7180976,18.434553 11.6143107,18.3302654 C11.6143107,18.1216904 11.7180976,17.9131154 11.8218845,17.7045403 C12.0294582,17.3916778 11.8218845,17.6002528 12.237032,17.3916778 C12.3408188,17.2873902 12.6521795,17.1831027 12.6521795,17.0788152 C12.6521795,16.9745277 12.9635401,16.8702402 13.067327,16.8702402 C13.4824745,16.5573776 13.5862614,16.1402275 14.1051957,15.827365 C14.6241301,15.6187899 14.5203432,15.5145024 14.8317039,14.9930648 C14.9354907,14.7844898 15.3506382,14.1587646 15.2468514,13.9501896 C15.0392776,13.7416146 14.4165564,13.7416146 14.0014089,13.5330395 C13.6900482,13.3244645 13.7938351,13.1158894 13.2749007,12.9073144 C12.7559663,12.5944518 12.8597532,12.4901643 12.237032,12.3858768 L11.8218845,12.3858768 Z M3,11.030139 C3.10378688,6.44148816 6.52875378,3 11.0953763,3 C14.6241301,3 17.3225889,5.19003792 18.5680314,8.42295104 C19.3983264,10.821564 18.9831789,13.1158894 17.7377364,15.2016398 C15.7657857,18.434553 11.9256713,19.7902907 8.39691755,18.5388405 C6.11360628,17.8088278 4.34922939,16.1402275 3.51893438,13.9501896 L3.51893438,13.8459021 C3.20757375,12.9073144 3,11.9687267 3,11.030139 L3,11.030139 Z" id="Globe"></path>
            <path d="M11.0953763,5.29432544 C10.8878026,5.39861296 11.1991632,5.50290048 11.406737,5.607188 C11.9256713,5.92005056 11.6143107,4.98146288 11.0953763,5.29432544 L11.0953763,5.29432544 Z M10.8878026,4.46002528 C11.1991632,4.5643128 12.3408188,5.39861296 11.406737,5.0857504 C11.406737,4.98146288 10.0575076,4.46002528 10.4726551,4.35573776 C10.5764419,4.35573776 10.7840157,4.35573776 10.8878026,4.46002528 L10.8878026,4.46002528 Z M9.01963881,4.5643128 C9.01963881,4.5643128 9.01963881,4.46002528 8.91585193,4.35573776 C8.70827818,4.35573776 8.91585193,4.25145024 9.22721256,4.25145024 C9.53857319,4.35573776 9.64236006,4.25145024 9.53857319,4.66860032 C9.53857319,4.87717536 8.91585193,4.77288784 8.91585193,4.77288784 C8.91585193,4.66860032 9.01963881,4.66860032 9.01963881,4.5643128 L9.01963881,4.5643128 Z M9.64236006,4.0428752 C9.84993382,4.0428752 9.22721256,3.83430016 9.33099944,4.0428752 C9.43478631,4.14716272 9.53857319,4.14716272 9.64236006,4.0428752 L9.64236006,4.0428752 Z M9.95372069,4.35573776 C9.95372069,4.14716272 9.74614694,4.35573776 9.95372069,4.35573776 L9.95372069,4.35573776 Z M10.2650813,3.93858768 C10.4726551,4.14716272 10.3688682,4.25145024 10.2650813,4.0428752 C10.1612944,3.93858768 10.1612944,3.83430016 10.2650813,3.93858768 L10.2650813,3.93858768 Z M13.067327,7.6929384 C13.4824745,7.79722592 12.7559663,7.1715008 12.7559663,7.1715008 C12.7559663,7.1715008 12.6521795,7.48436336 12.6521795,7.58865088 C12.7559663,7.6929384 12.8597532,7.58865088 13.067327,7.6929384 L13.067327,7.6929384 Z M10.8878026,11.3430016 C10.9915895,11.3430016 11.5105238,11.3430016 11.0953763,11.1344266 C10.8878026,11.1344266 10.3688682,10.821564 10.1612944,10.9258515 C10.2650813,11.030139 10.5764419,10.9258515 10.8878026,11.2387141 L10.8878026,11.3430016 Z M11.6143107,11.4472891 C11.6143107,11.4472891 12.1332451,11.4472891 11.8218845,11.3430016 C11.5105238,11.2387141 11.1991632,11.5515766 11.6143107,11.4472891 L11.6143107,11.4472891 Z M16.1809333,6.75435072 C16.1809333,6.54577568 15.7657857,6.1286256 15.7657857,6.02433808 C15.7657857,5.92005056 16.4922939,6.54577568 16.388507,6.85863824 C16.388507,7.06721328 16.1809333,6.75435072 16.1809333,6.75435072 L16.1809333,6.75435072 Z M15.8695726,6.6500632 C15.8695726,6.85863824 16.1809333,6.75435072 15.9733595,6.54577568 C15.8695726,6.44148816 15.8695726,6.54577568 15.8695726,6.6500632 L15.8695726,6.6500632 Z M14.6241301,5.29432544 C14.4165564,5.39861296 13.897622,4.98146288 14.2089826,5.0857504 C14.4165564,5.0857504 14.727917,5.0857504 14.6241301,5.29432544 L14.6241301,5.29432544 Z M12.3408188,11.5515766 C12.4446057,11.4472891 12.1332451,11.2387141 12.237032,11.4472891 C12.237032,11.5515766 12.237032,11.5515766 12.3408188,11.5515766 L12.3408188,11.5515766 Z M16.8036545,8.31866352 C17.0112283,8.63152608 17.218802,8.7358136 17.218802,8.31866352 L17.218802,7.6929384 C17.3225889,7.48436336 17.4263758,7.6929384 17.5301626,7.90151344 C18.1528839,8.63152608 17.7377364,7.90151344 17.5301626,7.6929384 C17.3225889,7.48436336 17.5301626,7.48436336 17.5301626,7.48436336 C17.218802,6.96292576 16.4922939,5.607188 16.5960808,7.1715008 C16.5960808,7.48436336 16.9074414,7.38007584 16.6998676,7.79722592 C16.5960808,8.00580096 16.6998676,8.11008848 16.8036545,8.31866352 L16.8036545,8.31866352 Z M17.1150151,11.9687267 C17.3225889,12.3858768 17.3225889,12.4901643 17.6339495,12.2815893 C17.8415233,12.1773018 17.8415233,11.8644392 18.1528839,12.1773018 C18.3604577,12.2815893 18.1528839,12.4901643 18.1528839,12.6987394 C18.1528839,13.3244645 18.3604577,11.7601517 18.3604577,11.7601517 C18.4642445,10.9258515 18.3604577,9.88297632 18.1528839,9.04867616 C18.049097,8.7358136 17.9453101,8.94438864 17.8415233,8.63152608 C17.7377364,8.42295104 17.6339495,8.42295104 17.4263758,8.52723856 C17.3225889,8.7358136 17.5301626,8.7358136 17.218802,8.7358136 C17.0112283,8.7358136 17.0112283,9.57011376 17.0112283,9.7786888 C16.8036545,10.4044139 16.8036545,10.1958389 16.9074414,10.821564 C16.9074414,11.6558642 16.6998676,11.2387141 17.1150151,11.9687267 L17.1150151,11.9687267 Z M10.5764419,3.93858768 C10.7840157,4.14716272 10.9915895,3.83430016 11.0953763,3.62572512 C11.1991632,3.41715008 10.8878026,3.5214376 10.7840157,3.62572512 C10.4726551,3.73001264 10.3688682,3.5214376 10.5764419,3.83430016 L10.5764419,3.93858768 Z M12.9635401,5.607188 C13.1711138,5.81576304 13.4824745,6.02433808 13.3786876,5.607188 C13.2749007,4.98146288 13.3786876,5.29432544 13.4824745,5.0857504 C13.5862614,4.87717536 13.897622,4.77288784 13.5862614,4.66860032 C13.2749007,4.35573776 13.2749007,4.14716272 12.7559663,3.83430016 C12.4446057,3.62572512 11.5105238,3.41715008 11.1991632,3.73001264 C11.0953763,3.93858768 11.6143107,4.14716272 11.8218845,4.25145024 C12.5483926,4.77288784 12.4446057,5.0857504 12.9635401,5.607188 L12.9635401,5.607188 Z M16.0771464,5.81576304 C16.2847201,6.02433808 16.0771464,5.81576304 16.388507,6.02433808 C16.5960808,6.23291312 16.2847201,5.81576304 16.2847201,5.81576304 C16.2847201,5.81576304 15.3506382,4.87717536 15.6619989,5.39861296 C15.7657857,5.607188 15.8695726,5.71147552 16.0771464,5.81576304 L16.0771464,5.81576304 Z M11.8218845,12.3858768 C11.6143107,12.2815893 11.5105238,12.4901643 11.5105238,12.2815893 C11.5105238,12.0730142 10.9915895,12.5944518 10.9915895,12.5944518 L10.6802288,12.5944518 L10.5764419,12.5944518 C10.3688682,12.5944518 10.2650813,12.5944518 10.1612944,12.3858768 C10.0575076,12.0730142 10.4726551,11.8644392 9.84993382,11.7601517 C9.53857319,11.7601517 9.64236006,11.5515766 9.74614694,11.3430016 C9.84993382,11.1344266 9.84993382,11.030139 9.64236006,11.030139 C9.43478631,11.1344266 9.33099944,11.6558642 9.01963881,11.4472891 C8.39691755,11.1344266 8.6044913,9.67440128 9.43478631,10.0915514 C9.74614694,10.1958389 9.33099944,9.7786888 10.1612944,9.98726384 C10.4726551,10.0915514 10.2650813,10.5087014 10.5764419,10.5087014 C10.7840157,10.612989 10.4726551,9.98726384 10.4726551,9.88297632 C10.5764419,9.57011376 11.1991632,9.46582624 10.9915895,9.04867616 L10.9915895,8.84010112 C11.0953763,8.7358136 10.9915895,9.15296368 11.1991632,8.7358136 C11.406737,8.42295104 11.5105238,8.63152608 11.6143107,8.31866352 C11.6143107,8.11008848 12.1332451,7.79722592 12.1332451,8.00580096 C12.0294582,8.214376 12.4446057,7.90151344 12.4446057,7.90151344 C12.3408188,7.79722592 12.1332451,7.79722592 12.1332451,7.58865088 C11.9256713,7.27578832 11.6143107,7.79722592 11.6143107,7.6929384 C11.5105238,7.48436336 12.0294582,7.38007584 12.1332451,7.27578832 C13.1711138,7.06721328 12.6521795,6.85863824 12.1332451,6.33720064 C11.6143107,5.71147552 11.8218845,6.44148816 11.5105238,6.02433808 C11.0953763,5.50290048 10.7840157,5.71147552 10.8878026,6.33720064 C10.9915895,6.44148816 10.9915895,6.54577568 10.7840157,6.6500632 L10.7840157,6.85863824 C10.7840157,7.27578832 10.5764419,7.38007584 10.5764419,6.85863824 C10.5764419,6.54577568 10.3688682,6.75435072 10.0575076,6.54577568 C9.64236006,6.33720064 9.33099944,6.23291312 9.84993382,5.71147552 C10.2650813,5.29432544 10.5764419,5.71147552 10.5764419,5.19003792 C10.5764419,4.87717536 10.6802288,4.87717536 10.4726551,4.98146288 C10.1612944,4.98146288 10.1612944,4.46002528 9.95372069,4.77288784 C9.64236006,4.98146288 9.53857319,4.98146288 9.22721256,4.98146288 C8.70827818,5.0857504 8.81206506,4.66860032 8.1893438,4.66860032 C7.67040942,4.77288784 7.7741963,4.5643128 7.46283567,4.5643128 C6.94390129,4.5643128 6.94390129,4.98146288 6.63254066,4.98146288 C6.32118003,5.0857504 6.52875378,5.0857504 6.32118003,5.29432544 C6.11360628,5.39861296 5.80224565,5.607188 5.90603253,5.92005056 C6.0098194,6.02433808 4.97195064,6.33720064 5.49088502,6.23291312 C6.11360628,6.1286256 6.11360628,5.81576304 6.42496691,5.71147552 C6.84011441,5.607188 6.84011441,6.23291312 6.84011441,6.54577568 C6.84011441,6.6500632 6.84011441,6.75435072 6.94390129,6.96292576 C7.04768816,7.58865088 6.94390129,7.1715008 6.84011441,7.1715008 C6.84011441,7.1715008 6.84011441,7.48436336 6.73632754,7.6929384 C6.63254066,8.00580096 6.42496691,8.42295104 6.63254066,8.7358136 C6.73632754,8.84010112 6.73632754,9.04867616 6.84011441,9.2572512 C6.94390129,9.57011376 6.94390129,9.67440128 7.04768816,10.0915514 C7.04768816,10.3001264 7.15147504,10.3001264 7.25526192,10.5087014 C7.25526192,10.612989 7.46283567,10.9258515 7.35904879,10.5087014 C7.15147504,9.7786888 7.04768816,9.36153872 7.46283567,10.3001264 C7.67040942,10.612989 7.7741963,10.7172765 7.87798317,11.030139 C7.98177005,11.3430016 8.39691755,11.6558642 8.81206506,11.6558642 C9.12342568,11.7601517 9.12342568,11.8644392 9.53857319,11.9687267 C10.0575076,12.1773018 9.74614694,12.3858768 10.0575076,12.5944518 C10.3688682,12.8030269 10.2650813,12.8030269 10.5764419,12.6987394 C11.0953763,12.8030269 10.8878026,13.220177 10.6802288,13.5330395 C10.3688682,13.9501896 10.6802288,13.8459021 10.5764419,13.9501896 C10.4726551,14.2630522 10.6802288,14.5759147 10.8878026,14.7844898 C11.5105238,15.7230774 11.8218845,15.5145024 11.5105238,16.8702402 C11.406737,17.1831027 10.9915895,18.0174029 11.3029501,18.2259779 C11.3029501,18.2259779 11.7180976,18.434553 11.6143107,18.3302654 C11.6143107,18.1216904 11.7180976,17.9131154 11.8218845,17.7045403 C12.0294582,17.3916778 11.8218845,17.6002528 12.237032,17.3916778 C12.3408188,17.2873902 12.6521795,17.1831027 12.6521795,17.0788152 C12.6521795,16.9745277 12.9635401,16.8702402 13.067327,16.8702402 C13.4824745,16.5573776 13.5862614,16.1402275 14.1051957,15.827365 C14.6241301,15.6187899 14.5203432,15.5145024 14.8317039,14.9930648 C14.9354907,14.7844898 15.3506382,14.1587646 15.2468514,13.9501896 C15.0392776,13.7416146 14.4165564,13.7416146 14.0014089,13.5330395 C13.6900482,13.3244645 13.7938351,13.1158894 13.2749007,12.9073144 C12.7559663,12.5944518 12.8597532,12.4901643 12.237032,12.3858768 L11.8218845,12.3858768 Z M3,11.030139 C3.10378688,6.44148816 6.52875378,3 11.0953763,3 C14.6241301,3 17.3225889,5.19003792 18.5680314,8.42295104 C19.3983264,10.821564 18.9831789,13.1158894 17.7377364,15.2016398 C15.7657857,18.434553 11.9256713,19.7902907 8.39691755,18.5388405 C6.11360628,17.8088278 4.34922939,16.1402275 3.51893438,13.9501896 L3.51893438,13.8459021 C3.20757375,12.9073144 3,11.9687267 3,11.030139 L3,11.030139 Z" id="Globe-Copy"></path>
            <path d="M11.0953763,5.29432544 C10.8878026,5.39861296 11.1991632,5.50290048 11.406737,5.607188 C11.9256713,5.92005056 11.6143107,4.98146288 11.0953763,5.29432544 L11.0953763,5.29432544 Z M10.8878026,4.46002528 C11.1991632,4.5643128 12.3408188,5.39861296 11.406737,5.0857504 C11.406737,4.98146288 10.0575076,4.46002528 10.4726551,4.35573776 C10.5764419,4.35573776 10.7840157,4.35573776 10.8878026,4.46002528 L10.8878026,4.46002528 Z M9.01963881,4.5643128 C9.01963881,4.5643128 9.01963881,4.46002528 8.91585193,4.35573776 C8.70827818,4.35573776 8.91585193,4.25145024 9.22721256,4.25145024 C9.53857319,4.35573776 9.64236006,4.25145024 9.53857319,4.66860032 C9.53857319,4.87717536 8.91585193,4.77288784 8.91585193,4.77288784 C8.91585193,4.66860032 9.01963881,4.66860032 9.01963881,4.5643128 L9.01963881,4.5643128 Z M9.64236006,4.0428752 C9.84993382,4.0428752 9.22721256,3.83430016 9.33099944,4.0428752 C9.43478631,4.14716272 9.53857319,4.14716272 9.64236006,4.0428752 L9.64236006,4.0428752 Z M9.95372069,4.35573776 C9.95372069,4.14716272 9.74614694,4.35573776 9.95372069,4.35573776 L9.95372069,4.35573776 Z M10.2650813,3.93858768 C10.4726551,4.14716272 10.3688682,4.25145024 10.2650813,4.0428752 C10.1612944,3.93858768 10.1612944,3.83430016 10.2650813,3.93858768 L10.2650813,3.93858768 Z M13.067327,7.6929384 C13.4824745,7.79722592 12.7559663,7.1715008 12.7559663,7.1715008 C12.7559663,7.1715008 12.6521795,7.48436336 12.6521795,7.58865088 C12.7559663,7.6929384 12.8597532,7.58865088 13.067327,7.6929384 L13.067327,7.6929384 Z M10.8878026,11.3430016 C10.9915895,11.3430016 11.5105238,11.3430016 11.0953763,11.1344266 C10.8878026,11.1344266 10.3688682,10.821564 10.1612944,10.9258515 C10.2650813,11.030139 10.5764419,10.9258515 10.8878026,11.2387141 L10.8878026,11.3430016 Z M11.6143107,11.4472891 C11.6143107,11.4472891 12.1332451,11.4472891 11.8218845,11.3430016 C11.5105238,11.2387141 11.1991632,11.5515766 11.6143107,11.4472891 L11.6143107,11.4472891 Z M16.1809333,6.75435072 C16.1809333,6.54577568 15.7657857,6.1286256 15.7657857,6.02433808 C15.7657857,5.92005056 16.4922939,6.54577568 16.388507,6.85863824 C16.388507,7.06721328 16.1809333,6.75435072 16.1809333,6.75435072 L16.1809333,6.75435072 Z M15.8695726,6.6500632 C15.8695726,6.85863824 16.1809333,6.75435072 15.9733595,6.54577568 C15.8695726,6.44148816 15.8695726,6.54577568 15.8695726,6.6500632 L15.8695726,6.6500632 Z M14.6241301,5.29432544 C14.4165564,5.39861296 13.897622,4.98146288 14.2089826,5.0857504 C14.4165564,5.0857504 14.727917,5.0857504 14.6241301,5.29432544 L14.6241301,5.29432544 Z M12.3408188,11.5515766 C12.4446057,11.4472891 12.1332451,11.2387141 12.237032,11.4472891 C12.237032,11.5515766 12.237032,11.5515766 12.3408188,11.5515766 L12.3408188,11.5515766 Z M16.8036545,8.31866352 C17.0112283,8.63152608 17.218802,8.7358136 17.218802,8.31866352 L17.218802,7.6929384 C17.3225889,7.48436336 17.4263758,7.6929384 17.5301626,7.90151344 C18.1528839,8.63152608 17.7377364,7.90151344 17.5301626,7.6929384 C17.3225889,7.48436336 17.5301626,7.48436336 17.5301626,7.48436336 C17.218802,6.96292576 16.4922939,5.607188 16.5960808,7.1715008 C16.5960808,7.48436336 16.9074414,7.38007584 16.6998676,7.79722592 C16.5960808,8.00580096 16.6998676,8.11008848 16.8036545,8.31866352 L16.8036545,8.31866352 Z M17.1150151,11.9687267 C17.3225889,12.3858768 17.3225889,12.4901643 17.6339495,12.2815893 C17.8415233,12.1773018 17.8415233,11.8644392 18.1528839,12.1773018 C18.3604577,12.2815893 18.1528839,12.4901643 18.1528839,12.6987394 C18.1528839,13.3244645 18.3604577,11.7601517 18.3604577,11.7601517 C18.4642445,10.9258515 18.3604577,9.88297632 18.1528839,9.04867616 C18.049097,8.7358136 17.9453101,8.94438864 17.8415233,8.63152608 C17.7377364,8.42295104 17.6339495,8.42295104 17.4263758,8.52723856 C17.3225889,8.7358136 17.5301626,8.7358136 17.218802,8.7358136 C17.0112283,8.7358136 17.0112283,9.57011376 17.0112283,9.7786888 C16.8036545,10.4044139 16.8036545,10.1958389 16.9074414,10.821564 C16.9074414,11.6558642 16.6998676,11.2387141 17.1150151,11.9687267 L17.1150151,11.9687267 Z M10.5764419,3.93858768 C10.7840157,4.14716272 10.9915895,3.83430016 11.0953763,3.62572512 C11.1991632,3.41715008 10.8878026,3.5214376 10.7840157,3.62572512 C10.4726551,3.73001264 10.3688682,3.5214376 10.5764419,3.83430016 L10.5764419,3.93858768 Z M12.9635401,5.607188 C13.1711138,5.81576304 13.4824745,6.02433808 13.3786876,5.607188 C13.2749007,4.98146288 13.3786876,5.29432544 13.4824745,5.0857504 C13.5862614,4.87717536 13.897622,4.77288784 13.5862614,4.66860032 C13.2749007,4.35573776 13.2749007,4.14716272 12.7559663,3.83430016 C12.4446057,3.62572512 11.5105238,3.41715008 11.1991632,3.73001264 C11.0953763,3.93858768 11.6143107,4.14716272 11.8218845,4.25145024 C12.5483926,4.77288784 12.4446057,5.0857504 12.9635401,5.607188 L12.9635401,5.607188 Z M16.0771464,5.81576304 C16.2847201,6.02433808 16.0771464,5.81576304 16.388507,6.02433808 C16.5960808,6.23291312 16.2847201,5.81576304 16.2847201,5.81576304 C16.2847201,5.81576304 15.3506382,4.87717536 15.6619989,5.39861296 C15.7657857,5.607188 15.8695726,5.71147552 16.0771464,5.81576304 L16.0771464,5.81576304 Z M11.8218845,12.3858768 C11.6143107,12.2815893 11.5105238,12.4901643 11.5105238,12.2815893 C11.5105238,12.0730142 10.9915895,12.5944518 10.9915895,12.5944518 L10.6802288,12.5944518 L10.5764419,12.5944518 C10.3688682,12.5944518 10.2650813,12.5944518 10.1612944,12.3858768 C10.0575076,12.0730142 10.4726551,11.8644392 9.84993382,11.7601517 C9.53857319,11.7601517 9.64236006,11.5515766 9.74614694,11.3430016 C9.84993382,11.1344266 9.84993382,11.030139 9.64236006,11.030139 C9.43478631,11.1344266 9.33099944,11.6558642 9.01963881,11.4472891 C8.39691755,11.1344266 8.6044913,9.67440128 9.43478631,10.0915514 C9.74614694,10.1958389 9.33099944,9.7786888 10.1612944,9.98726384 C10.4726551,10.0915514 10.2650813,10.5087014 10.5764419,10.5087014 C10.7840157,10.612989 10.4726551,9.98726384 10.4726551,9.88297632 C10.5764419,9.57011376 11.1991632,9.46582624 10.9915895,9.04867616 L10.9915895,8.84010112 C11.0953763,8.7358136 10.9915895,9.15296368 11.1991632,8.7358136 C11.406737,8.42295104 11.5105238,8.63152608 11.6143107,8.31866352 C11.6143107,8.11008848 12.1332451,7.79722592 12.1332451,8.00580096 C12.0294582,8.214376 12.4446057,7.90151344 12.4446057,7.90151344 C12.3408188,7.79722592 12.1332451,7.79722592 12.1332451,7.58865088 C11.9256713,7.27578832 11.6143107,7.79722592 11.6143107,7.6929384 C11.5105238,7.48436336 12.0294582,7.38007584 12.1332451,7.27578832 C13.1711138,7.06721328 12.6521795,6.85863824 12.1332451,6.33720064 C11.6143107,5.71147552 11.8218845,6.44148816 11.5105238,6.02433808 C11.0953763,5.50290048 10.7840157,5.71147552 10.8878026,6.33720064 C10.9915895,6.44148816 10.9915895,6.54577568 10.7840157,6.6500632 L10.7840157,6.85863824 C10.7840157,7.27578832 10.5764419,7.38007584 10.5764419,6.85863824 C10.5764419,6.54577568 10.3688682,6.75435072 10.0575076,6.54577568 C9.64236006,6.33720064 9.33099944,6.23291312 9.84993382,5.71147552 C10.2650813,5.29432544 10.5764419,5.71147552 10.5764419,5.19003792 C10.5764419,4.87717536 10.6802288,4.87717536 10.4726551,4.98146288 C10.1612944,4.98146288 10.1612944,4.46002528 9.95372069,4.77288784 C9.64236006,4.98146288 9.53857319,4.98146288 9.22721256,4.98146288 C8.70827818,5.0857504 8.81206506,4.66860032 8.1893438,4.66860032 C7.67040942,4.77288784 7.7741963,4.5643128 7.46283567,4.5643128 C6.94390129,4.5643128 6.94390129,4.98146288 6.63254066,4.98146288 C6.32118003,5.0857504 6.52875378,5.0857504 6.32118003,5.29432544 C6.11360628,5.39861296 5.80224565,5.607188 5.90603253,5.92005056 C6.0098194,6.02433808 4.97195064,6.33720064 5.49088502,6.23291312 C6.11360628,6.1286256 6.11360628,5.81576304 6.42496691,5.71147552 C6.84011441,5.607188 6.84011441,6.23291312 6.84011441,6.54577568 C6.84011441,6.6500632 6.84011441,6.75435072 6.94390129,6.96292576 C7.04768816,7.58865088 6.94390129,7.1715008 6.84011441,7.1715008 C6.84011441,7.1715008 6.84011441,7.48436336 6.73632754,7.6929384 C6.63254066,8.00580096 6.42496691,8.42295104 6.63254066,8.7358136 C6.73632754,8.84010112 6.73632754,9.04867616 6.84011441,9.2572512 C6.94390129,9.57011376 6.94390129,9.67440128 7.04768816,10.0915514 C7.04768816,10.3001264 7.15147504,10.3001264 7.25526192,10.5087014 C7.25526192,10.612989 7.46283567,10.9258515 7.35904879,10.5087014 C7.15147504,9.7786888 7.04768816,9.36153872 7.46283567,10.3001264 C7.67040942,10.612989 7.7741963,10.7172765 7.87798317,11.030139 C7.98177005,11.3430016 8.39691755,11.6558642 8.81206506,11.6558642 C9.12342568,11.7601517 9.12342568,11.8644392 9.53857319,11.9687267 C10.0575076,12.1773018 9.74614694,12.3858768 10.0575076,12.5944518 C10.3688682,12.8030269 10.2650813,12.8030269 10.5764419,12.6987394 C11.0953763,12.8030269 10.8878026,13.220177 10.6802288,13.5330395 C10.3688682,13.9501896 10.6802288,13.8459021 10.5764419,13.9501896 C10.4726551,14.2630522 10.6802288,14.5759147 10.8878026,14.7844898 C11.5105238,15.7230774 11.8218845,15.5145024 11.5105238,16.8702402 C11.406737,17.1831027 10.9915895,18.0174029 11.3029501,18.2259779 C11.3029501,18.2259779 11.7180976,18.434553 11.6143107,18.3302654 C11.6143107,18.1216904 11.7180976,17.9131154 11.8218845,17.7045403 C12.0294582,17.3916778 11.8218845,17.6002528 12.237032,17.3916778 C12.3408188,17.2873902 12.6521795,17.1831027 12.6521795,17.0788152 C12.6521795,16.9745277 12.9635401,16.8702402 13.067327,16.8702402 C13.4824745,16.5573776 13.5862614,16.1402275 14.1051957,15.827365 C14.6241301,15.6187899 14.5203432,15.5145024 14.8317039,14.9930648 C14.9354907,14.7844898 15.3506382,14.1587646 15.2468514,13.9501896 C15.0392776,13.7416146 14.4165564,13.7416146 14.0014089,13.5330395 C13.6900482,13.3244645 13.7938351,13.1158894 13.2749007,12.9073144 C12.7559663,12.5944518 12.8597532,12.4901643 12.237032,12.3858768 L11.8218845,12.3858768 Z M3,11.030139 C3.10378688,6.44148816 6.52875378,3 11.0953763,3 C14.6241301,3 17.3225889,5.19003792 18.5680314,8.42295104 C19.3983264,10.821564 18.9831789,13.1158894 17.7377364,15.2016398 C15.7657857,18.434553 11.9256713,19.7902907 8.39691755,18.5388405 C6.11360628,17.8088278 4.34922939,16.1402275 3.51893438,13.9501896 L3.51893438,13.8459021 C3.20757375,12.9073144 3,11.9687267 3,11.030139 L3,11.030139 Z" id="Globe-Copy-2"></path>
        </g>
    </g>
</svg>