<?xml version="1.0" encoding="UTF-8"?>
<svg width="22px" height="22px" viewBox="0 0 22 22" version="1.1" xmlns="http://www.w3.org/2000/svg" xmlns:xlink="http://www.w3.org/1999/xlink">
    <title>A3C24F83-6D5E-4946-8687-0AEF7AB7B76D</title>
    <g id="Symbols" stroke="none" stroke-width="1" fill="none" fill-rule="evenodd">
        <g id="Web/*_Assets/Icons/ic_profile_header/Light-Mode" fill="#8E8E93" fill-rule="nonzero">
            <path d="M11,3 C15.4126316,3 19,6.58736842 19,11 C19,15.4126316 15.4126316,19 11,19 C6.58736842,19 3,15.4126316 3,11 C3,6.58736842 6.58736842,3 11,3 Z M11,4.46526316 C7.39578947,4.46526316 4.46526316,7.39578947 4.46526316,11 C4.46526316,12.92 5.29052632,14.6547368 6.62105263,15.8505263 L6.62105263,14.7389474 C6.62105263,13.6610526 7.49684211,12.8021053 8.55789474,12.8021053 L13.4421053,12.8021053 C14.52,12.8021053 15.3789474,13.6778947 15.3789474,14.7389474 L15.3789474,15.8505263 C16.7094737,14.6547368 17.5347368,12.92 17.5347368,11 C17.5347368,7.39578947 14.6042105,4.46526316 11,4.46526316 Z M11,6.85684211 C12.4417539,6.85684211 13.6105263,8.02561455 13.6105263,9.46736842 C13.6105263,10.9091223 12.4417539,12.0778947 11,12.0778947 C9.55824613,12.0778947 8.38947368,10.9091223 8.38947368,9.46736842 C8.38947368,8.02561455 9.55824613,6.85684211 11,6.85684211 Z" id="User"></path>
        </g>
    </g>
</svg>