<?xml version="1.0" encoding="UTF-8"?>
<svg width="22px" height="22px" viewBox="0 0 22 22" version="1.1" xmlns="http://www.w3.org/2000/svg" xmlns:xlink="http://www.w3.org/1999/xlink">
    <title>2E1BA541-0CE8-4CEE-9E64-48940125EEC0</title>
    <defs>
        <path d="M13.8985378,12.5994658 C14.6402287,11.6256069 15.0575968,10.3735027 15.0575968,9.0283532 C15.0575968,5.68940859 12.3681882,3 9.02924359,3 C5.69029897,3 3,5.69029897 3,9.02924359 C3,12.3681882 5.68940859,15.0575968 9.0283532,15.0575968 C10.3735027,15.0575968 11.5786391,14.6402287 12.5994658,13.8985378 L17.4226826,18.7217546 C17.6078894,18.9069614 17.8400506,19 18.0722186,19 C18.3043865,19 18.5356641,18.9069614 18.7217546,18.7217546 C19.0921771,18.350464 19.0921771,17.7939732 18.7208843,17.4227048 L13.8985378,12.5994658 Z M9.02924359,13.2029244 C6.71023526,13.2029244 4.85556282,11.3482519 4.85556282,9.02924359 C4.85556282,6.71023526 6.71023526,4.85556282 9.02924359,4.85556282 C11.3482519,4.85556282 13.2029244,6.71023526 13.2029244,9.02924359 C13.2029244,11.3473615 11.3473838,13.2029244 9.02924359,13.2029244 Z" id="path-1"></path>
    </defs>
    <g id="Symbols" stroke="none" stroke-width="1" fill="none" fill-rule="evenodd">
        <g id="_Assets/Icons/ic_search/Light-Mode">
            <mask id="mask-2" fill="white">
                <use xlink:href="#path-1"></use>
            </mask>
            <use id="Search" fill="#4A4A4A" xlink:href="#path-1"></use>
        </g>
    </g>
</svg>