<?xml version="1.0" encoding="UTF-8"?>
<svg width="22px" height="22px" viewBox="0 0 22 22" version="1.1" xmlns="http://www.w3.org/2000/svg" xmlns:xlink="http://www.w3.org/1999/xlink">
    <title>43CCCE2D-A12B-4D31-9078-C6FE58C04F95</title>
    <defs>
        <path d="M19,5.65734922 C18.4121031,5.93846154 17.7791278,6.12856627 17.1151611,6.21350668 C17.7932148,5.77667028 18.3134942,5.08400144 18.5586077,4.25886602 C17.9237542,4.66334417 17.2222222,4.95760202 16.4727945,5.1153485 C15.8755063,4.42874684 15.0218348,4 14.0770676,4 C12.265481,4 10.7957387,5.58252077 10.7957387,7.53412784 C10.7957387,7.81119538 10.8239127,8.08017335 10.8802606,8.33903936 C8.15208077,8.19140484 5.73381464,6.78584326 4.11381112,4.64514265 C3.83113224,5.16894186 3.66960146,5.77667028 3.66960146,6.42383532 C3.66960146,7.64940412 4.24904619,8.73138317 5.12995246,9.36540267 C4.59276868,9.34821235 4.08563714,9.18743229 3.64236661,8.92452149 L3.64236661,8.96800289 C3.64236661,10.6809679 4.77402125,12.1097869 6.27663321,12.4333694 C6.00146739,12.5162875 5.71127546,12.5577465 5.4116922,12.5577465 C5.20038739,12.5577465 4.99377825,12.5365114 4.79374303,12.4950524 C5.21165698,13.8985915 6.42313788,14.9209101 7.86001057,14.9482124 C6.73680812,15.8967136 5.32059635,16.4619718 3.78323649,16.4619718 C3.51840113,16.4619718 3.25638317,16.4457927 3,16.4134345 C4.45283794,17.4145179 6.17896343,18 8.03187181,18 C14.0704936,18 17.3715443,12.6153846 17.3715443,7.94467317 C17.3715443,7.79097147 17.3687269,7.63726977 17.3630921,7.48660166 C18.0045196,6.98808234 18.5614251,6.36619718 19,5.65734922" id="path-1"></path>
        <filter x="-312.5%" y="-285.7%" width="725.0%" height="814.3%" filterUnits="objectBoundingBox" id="filter-3">
            <feOffset dx="0" dy="10" in="SourceAlpha" result="shadowOffsetOuter1"></feOffset>
            <feGaussianBlur stdDeviation="15" in="shadowOffsetOuter1" result="shadowBlurOuter1"></feGaussianBlur>
            <feColorMatrix values="0 0 0 0 0   0 0 0 0 0   0 0 0 0 0  0 0 0 0.15 0" type="matrix" in="shadowBlurOuter1"></feColorMatrix>
        </filter>
    </defs>
    <g id="Symbols" stroke="none" stroke-width="1" fill="none" fill-rule="evenodd">
        <g id="Web/*_Assets/Icons/ic_twitter/Light-Mode">
            <mask id="mask-2" fill="white">
                <use xlink:href="#path-1"></use>
            </mask>
            <g id="Twitter" fill-rule="nonzero">
                <use fill="black" fill-opacity="1" filter="url(#filter-3)" xlink:href="#path-1"></use>
                <use fill="#4CA7E6" xlink:href="#path-1"></use>
            </g>
        </g>
    </g>
</svg>