<?xml version="1.0" encoding="UTF-8"?>
<svg width="22px" height="22px" viewBox="0 0 22 22" version="1.1" xmlns="http://www.w3.org/2000/svg" xmlns:xlink="http://www.w3.org/1999/xlink">
    <g id="Symbols" stroke="none" stroke-width="1" fill="none" fill-rule="evenodd">
        <g id="_Assets/Icons/ic_validity/Light-Mode" fill="currentColor">
            <path d="M14.7012098,3 C14.9167415,3 15.0914537,3.17471837 15.0914537,3.39024462 L15.0914537,6.70732385 C15.0914537,6.92284815 14.9167415,7.09756847 14.7012098,7.09756847 C14.485678,7.09756847 14.3109659,6.92284815 14.3109659,6.70732385 L14.3109659,3.39024462 C14.3109659,3.17471837 14.485678,3 14.7012098,3 Z M7.28657561,3 C7.50210732,3 7.67681951,3.17471837 7.67681951,3.39024462 L7.67681951,6.70732385 C7.67681951,6.92284815 7.50210732,7.09756847 7.28657561,7.09756847 C7.0710439,7.09756847 6.89633171,6.92284815 6.89633171,6.70732385 L6.89633171,3.39024462 C6.89633171,3.17471837 7.0710439,3 7.28657561,3 Z M17.4329171,4.17073385 C18.3003902,4.17073385 19,4.87033318 19,5.73780989 L19,9.24390801 L3,9.24390801 L3,5.73780989 C3,4.87033318 3.69960976,4.17073385 4.56706341,4.17073385 L5.73170732,4.17073385 L6.5060878,4.17073385 L6.5060878,5.83537104 C6.26675122,6.04973241 6.1158439,6.36073786 6.1158439,6.70732385 C6.1158439,7.3539026 6.64,7.8780577 7.28657561,7.8780577 C7.93315122,7.8780577 8.45730732,7.3539026 8.45730732,6.70732385 C8.45730732,6.36073786 8.3064,6.04973241 8.06706341,5.83537104 L8.06706341,4.17073385 L13.9268293,4.17073385 L13.9268293,5.82927347 C13.6837659,6.04379484 13.530478,6.35764907 13.530478,6.70732385 C13.530478,7.3539026 14.0546341,7.8780577 14.7012098,7.8780577 C15.3477854,7.8780577 15.8719415,7.3539026 15.8719415,6.70732385 C15.8719415,6.36382859 15.7234146,6.055629 15.4878049,5.84146861 L15.4878049,4.17073385 L17.4329171,4.17073385 Z M19,10.0243953 L19,17.4329142 C19,18.300389 18.3004098,19 17.4329171,19 L4.56706341,19 C3.69960976,19 3,18.300389 3,17.4329142 L3,10.0243953 L19,10.0243953 Z" id="Validity"></path>
        </g>
    </g>
</svg>