<?xml version="1.0" encoding="UTF-8"?>
<svg width="22px" height="22px" viewBox="0 0 22 22" version="1.1" xmlns="http://www.w3.org/2000/svg" xmlns:xlink="http://www.w3.org/1999/xlink">
    <title>EB13B135-EA70-40C4-9A2D-8FE08B7CC313</title>
    <g id="Symbols" stroke="none" stroke-width="1" fill="none" fill-rule="evenodd">
        <g id="Web/*_Assets/Icons/ic_vk/Light-Mode" fill="#2787F5" fill-rule="nonzero">
            <path d="M17.8772333,4.12275667 C18.9251489,5.17066289 18.9950099,6.81466754 18.9996673,9.96760796 L18.9996673,12.0323922 C18.9950099,15.1853341 18.9251489,16.8293489 17.8772333,17.8772333 C16.8293489,18.9251489 15.1853341,18.9950099 12.0323922,18.9996673 L9.96760796,18.9996673 C6.81466754,18.9950099 5.17066289,18.9251489 4.12275667,17.8772333 C3.03742522,16.7919244 3.00124751,15.0671441 3.00004158,11.6887615 L3,10.6666667 C3,7.05256667 3,5.24551333 4.12275667,4.12275667 C5.20808811,3.03742522 6.93285677,3.00124751 10.3112386,3.00004158 L11.3333333,3 C14.9474333,3 16.7545,3 17.8772333,4.12275667 Z M7.33363333,8 L6.1667,8 C5.83328667,8 5.7666,8.15693333 5.7666,8.32993333 C5.7666,8.63896667 6.16222,10.1716 7.60866667,12.1986333 C8.57296667,13.5829333 9.93156667,14.3333333 11.1678667,14.3333333 C11.9096333,14.3333333 12.0014,14.1666667 12.0014,13.8796 L12.0014,12.8333333 C12.0014,12.5 12.0716667,12.4334667 12.3065333,12.4334667 C12.4796333,12.4334667 12.7763333,12.52 13.4686667,13.1874333 C14.2599,13.9784667 14.3903333,14.3333333 14.8353667,14.3333333 L16.0023,14.3333333 C16.3357333,14.3333333 16.5024333,14.1666667 16.4062667,13.8377667 C16.3010333,13.5099667 15.9232667,13.0343333 15.422,12.4705667 C15.15,12.1492 14.7420333,11.8031333 14.6184,11.6300667 C14.4453333,11.4076 14.4947667,11.3087 14.6184,11.1109667 C14.6184,11.1109667 16.0401333,9.10863333 16.1885,8.42886667 C16.2626667,8.18163333 16.1885,8 15.8356,8 L14.6686667,8 C14.3719667,8 14.2351667,8.15693333 14.1609667,8.32993333 C14.1609667,8.32993333 13.5675667,9.77606667 12.7269,10.7154333 C12.4549,10.9873333 12.3312667,11.0738667 12.1829,11.0738667 C12.1087333,11.0738667 12.0013667,10.9873333 12.0013667,10.7401667 L12.0013667,8.42886667 C12.0013667,8.1322 11.9152667,8 11.6679667,8 L9.8342,8 C9.6488,8 9.53726667,8.13766667 9.53726667,8.26816667 C9.53726667,8.54936667 9.9576,8.61423333 10.0009333,9.40526667 L10.0009333,11.1233333 C10.0009333,11.5 9.93286667,11.5683 9.78453333,11.5683 C9.38893333,11.5683 8.42663333,10.1157 7.8559,8.45356667 C7.74406667,8.1305 7.63186667,8 7.33363333,8 Z" id="Vk"></path>
        </g>
    </g>
</svg>